<mxfile host="app.diagrams.net" agent="Mozilla/5.0 (Windows NT 10.0; Win64; x64) AppleWebKit/537.36 (KHTML, like Gecko) Chrome/132.0.0.0 Safari/537.36" version="26.0.11" pages="3">
  <diagram name="DataBase Project" id="qkmOY7PCLWqSqp8gOzCZ">
    <mxGraphModel dx="1114" dy="593" grid="1" gridSize="10" guides="1" tooltips="1" connect="1" arrows="1" fold="1" page="1" pageScale="1" pageWidth="827" pageHeight="1169" math="0" shadow="0">
      <root>
        <mxCell id="0" />
        <mxCell id="1" parent="0" />
        <mxCell id="j0U818GSpceb6tb2Wbuf-1" value="User" style="swimlane;fontStyle=0;childLayout=stackLayout;horizontal=1;startSize=30;horizontalStack=0;resizeParent=1;resizeParentMax=0;resizeLast=0;collapsible=1;marginBottom=0;whiteSpace=wrap;html=1;" vertex="1" parent="1">
          <mxGeometry x="310" y="70" width="140" height="150" as="geometry" />
        </mxCell>
        <mxCell id="j0U818GSpceb6tb2Wbuf-9" value="id int not null a.i" style="text;strokeColor=none;fillColor=none;align=left;verticalAlign=middle;spacingLeft=4;spacingRight=4;overflow=hidden;points=[[0,0.5],[1,0.5]];portConstraint=eastwest;rotatable=0;whiteSpace=wrap;html=1;" vertex="1" parent="j0U818GSpceb6tb2Wbuf-1">
          <mxGeometry y="30" width="140" height="30" as="geometry" />
        </mxCell>
        <mxCell id="j0U818GSpceb6tb2Wbuf-2" value="&lt;div&gt;name varchar(20)&lt;/div&gt;" style="text;strokeColor=none;fillColor=none;align=left;verticalAlign=middle;spacingLeft=4;spacingRight=4;overflow=hidden;points=[[0,0.5],[1,0.5]];portConstraint=eastwest;rotatable=0;whiteSpace=wrap;html=1;" vertex="1" parent="j0U818GSpceb6tb2Wbuf-1">
          <mxGeometry y="60" width="140" height="30" as="geometry" />
        </mxCell>
        <mxCell id="j0U818GSpceb6tb2Wbuf-3" value="chances int(1)" style="text;strokeColor=none;fillColor=none;align=left;verticalAlign=middle;spacingLeft=4;spacingRight=4;overflow=hidden;points=[[0,0.5],[1,0.5]];portConstraint=eastwest;rotatable=0;whiteSpace=wrap;html=1;" vertex="1" parent="j0U818GSpceb6tb2Wbuf-1">
          <mxGeometry y="90" width="140" height="30" as="geometry" />
        </mxCell>
        <mxCell id="j0U818GSpceb6tb2Wbuf-4" value="points int(4)" style="text;strokeColor=none;fillColor=none;align=left;verticalAlign=middle;spacingLeft=4;spacingRight=4;overflow=hidden;points=[[0,0.5],[1,0.5]];portConstraint=eastwest;rotatable=0;whiteSpace=wrap;html=1;" vertex="1" parent="j0U818GSpceb6tb2Wbuf-1">
          <mxGeometry y="120" width="140" height="30" as="geometry" />
        </mxCell>
        <mxCell id="j0U818GSpceb6tb2Wbuf-5" value="Questions" style="swimlane;fontStyle=0;childLayout=stackLayout;horizontal=1;startSize=30;horizontalStack=0;resizeParent=1;resizeParentMax=0;resizeLast=0;collapsible=1;marginBottom=0;whiteSpace=wrap;html=1;" vertex="1" parent="1">
          <mxGeometry x="110" y="70" width="140" height="90" as="geometry" />
        </mxCell>
        <mxCell id="j0U818GSpceb6tb2Wbuf-6" value="id int not null a.i" style="text;strokeColor=none;fillColor=none;align=left;verticalAlign=middle;spacingLeft=4;spacingRight=4;overflow=hidden;points=[[0,0.5],[1,0.5]];portConstraint=eastwest;rotatable=0;whiteSpace=wrap;html=1;" vertex="1" parent="j0U818GSpceb6tb2Wbuf-5">
          <mxGeometry y="30" width="140" height="30" as="geometry" />
        </mxCell>
        <mxCell id="j0U818GSpceb6tb2Wbuf-8" value="question text(50)" style="text;strokeColor=none;fillColor=none;align=left;verticalAlign=middle;spacingLeft=4;spacingRight=4;overflow=hidden;points=[[0,0.5],[1,0.5]];portConstraint=eastwest;rotatable=0;whiteSpace=wrap;html=1;" vertex="1" parent="j0U818GSpceb6tb2Wbuf-5">
          <mxGeometry y="60" width="140" height="30" as="geometry" />
        </mxCell>
      </root>
    </mxGraphModel>
  </diagram>
  <diagram id="mPwHCbQlNT-gyFAdDzQE" name="Strona-2">
    <mxGraphModel dx="819" dy="446" grid="1" gridSize="10" guides="1" tooltips="1" connect="1" arrows="1" fold="1" page="1" pageScale="1" pageWidth="827" pageHeight="1169" math="0" shadow="0">
      <root>
        <mxCell id="0" />
        <mxCell id="1" parent="0" />
        <mxCell id="5Tn547NZbzkMeKfLdmhW-15" style="edgeStyle=orthogonalEdgeStyle;rounded=0;orthogonalLoop=1;jettySize=auto;html=1;entryX=0;entryY=0.5;entryDx=0;entryDy=0;endArrow=none;startFill=0;" edge="1" parent="1" source="pKz5EjJlFkGOmxM3lD51-2" target="pKz5EjJlFkGOmxM3lD51-4">
          <mxGeometry relative="1" as="geometry" />
        </mxCell>
        <mxCell id="pKz5EjJlFkGOmxM3lD51-2" value="Admin" style="shape=umlActor;verticalLabelPosition=bottom;verticalAlign=top;html=1;" parent="1" vertex="1">
          <mxGeometry x="110" y="325" width="30" height="60" as="geometry" />
        </mxCell>
        <mxCell id="5Tn547NZbzkMeKfLdmhW-23" style="edgeStyle=orthogonalEdgeStyle;rounded=0;orthogonalLoop=1;jettySize=auto;html=1;entryX=0;entryY=0.5;entryDx=0;entryDy=0;dashed=1;endArrow=open;endFill=0;" edge="1" parent="1" source="pKz5EjJlFkGOmxM3lD51-4" target="5Tn547NZbzkMeKfLdmhW-19">
          <mxGeometry relative="1" as="geometry" />
        </mxCell>
        <mxCell id="pKz5EjJlFkGOmxM3lD51-4" value="wybór poprawności odpowiedzi&amp;nbsp;" style="ellipse;whiteSpace=wrap;html=1;" parent="1" vertex="1">
          <mxGeometry x="250" y="240" width="140" height="70" as="geometry" />
        </mxCell>
        <mxCell id="5Tn547NZbzkMeKfLdmhW-3" value="" style="edgeStyle=orthogonalEdgeStyle;rounded=0;orthogonalLoop=1;jettySize=auto;html=1;endArrow=none;startFill=0;" edge="1" parent="1" source="5Tn547NZbzkMeKfLdmhW-2" target="pKz5EjJlFkGOmxM3lD51-2">
          <mxGeometry relative="1" as="geometry" />
        </mxCell>
        <mxCell id="5Tn547NZbzkMeKfLdmhW-2" value="zarządzanie&amp;nbsp;&lt;div&gt;uczestnikami&lt;/div&gt;" style="ellipse;whiteSpace=wrap;html=1;" vertex="1" parent="1">
          <mxGeometry x="250" y="350" width="140" height="70" as="geometry" />
        </mxCell>
        <mxCell id="5Tn547NZbzkMeKfLdmhW-7" value="" style="edgeStyle=orthogonalEdgeStyle;rounded=0;orthogonalLoop=1;jettySize=auto;html=1;dashed=1;endArrow=open;endFill=0;" edge="1" parent="1" source="5Tn547NZbzkMeKfLdmhW-5" target="5Tn547NZbzkMeKfLdmhW-2">
          <mxGeometry relative="1" as="geometry" />
        </mxCell>
        <mxCell id="5Tn547NZbzkMeKfLdmhW-8" value="&amp;lt;&amp;lt;extend&amp;gt;&amp;gt;" style="edgeLabel;html=1;align=center;verticalAlign=middle;resizable=0;points=[];" vertex="1" connectable="0" parent="5Tn547NZbzkMeKfLdmhW-7">
          <mxGeometry relative="1" as="geometry">
            <mxPoint as="offset" />
          </mxGeometry>
        </mxCell>
        <mxCell id="5Tn547NZbzkMeKfLdmhW-5" value="edycja uczestników" style="ellipse;whiteSpace=wrap;html=1;" vertex="1" parent="1">
          <mxGeometry x="510" y="350" width="140" height="70" as="geometry" />
        </mxCell>
        <mxCell id="5Tn547NZbzkMeKfLdmhW-10" value="wybór rundy&amp;nbsp;" style="ellipse;whiteSpace=wrap;html=1;" vertex="1" parent="1">
          <mxGeometry x="220" y="540" width="140" height="70" as="geometry" />
        </mxCell>
        <mxCell id="5Tn547NZbzkMeKfLdmhW-11" style="edgeStyle=orthogonalEdgeStyle;rounded=0;orthogonalLoop=1;jettySize=auto;html=1;entryX=0;entryY=0.5;entryDx=0;entryDy=0;endArrow=none;startFill=0;" edge="1" parent="1" source="pKz5EjJlFkGOmxM3lD51-2" target="5Tn547NZbzkMeKfLdmhW-10">
          <mxGeometry relative="1" as="geometry">
            <Array as="points">
              <mxPoint x="195" y="355" />
              <mxPoint x="195" y="560" />
              <mxPoint x="220" y="560" />
            </Array>
          </mxGeometry>
        </mxCell>
        <mxCell id="5Tn547NZbzkMeKfLdmhW-16" value="Uczestnik" style="shape=umlActor;verticalLabelPosition=bottom;verticalAlign=top;html=1;" vertex="1" parent="1">
          <mxGeometry x="770" y="325" width="30" height="60" as="geometry" />
        </mxCell>
        <mxCell id="5Tn547NZbzkMeKfLdmhW-19" value="informacja o uczestniku odpowiadającym" style="ellipse;whiteSpace=wrap;html=1;" vertex="1" parent="1">
          <mxGeometry x="510" y="240" width="140" height="70" as="geometry" />
        </mxCell>
        <mxCell id="5Tn547NZbzkMeKfLdmhW-21" style="edgeStyle=orthogonalEdgeStyle;rounded=0;orthogonalLoop=1;jettySize=auto;html=1;entryX=1;entryY=0.429;entryDx=0;entryDy=0;entryPerimeter=0;endArrow=none;endFill=1;startFill=0;" edge="1" parent="1" source="5Tn547NZbzkMeKfLdmhW-16" target="5Tn547NZbzkMeKfLdmhW-19">
          <mxGeometry relative="1" as="geometry" />
        </mxCell>
        <mxCell id="5Tn547NZbzkMeKfLdmhW-24" value="&amp;lt;&amp;lt;include&amp;gt;&amp;gt;" style="text;html=1;align=center;verticalAlign=middle;resizable=0;points=[];autosize=1;strokeColor=none;fillColor=none;" vertex="1" parent="1">
          <mxGeometry x="405" y="250" width="90" height="30" as="geometry" />
        </mxCell>
        <mxCell id="5Tn547NZbzkMeKfLdmhW-25" value="" style="edgeStyle=orthogonalEdgeStyle;rounded=0;orthogonalLoop=1;jettySize=auto;html=1;dashed=1;endArrow=open;endFill=0;entryX=1;entryY=1;entryDx=0;entryDy=0;exitX=0;exitY=0.5;exitDx=0;exitDy=0;" edge="1" parent="1" source="5Tn547NZbzkMeKfLdmhW-27" target="5Tn547NZbzkMeKfLdmhW-2">
          <mxGeometry relative="1" as="geometry">
            <mxPoint x="500" y="460" as="sourcePoint" />
            <mxPoint x="380" y="440" as="targetPoint" />
          </mxGeometry>
        </mxCell>
        <mxCell id="5Tn547NZbzkMeKfLdmhW-26" value="&amp;lt;&amp;lt;extend&amp;gt;&amp;gt;" style="edgeLabel;html=1;align=center;verticalAlign=middle;resizable=0;points=[];" vertex="1" connectable="0" parent="5Tn547NZbzkMeKfLdmhW-25">
          <mxGeometry relative="1" as="geometry">
            <mxPoint as="offset" />
          </mxGeometry>
        </mxCell>
        <mxCell id="5Tn547NZbzkMeKfLdmhW-27" value="usuwanie uczestników" style="ellipse;whiteSpace=wrap;html=1;" vertex="1" parent="1">
          <mxGeometry x="510" y="430" width="140" height="70" as="geometry" />
        </mxCell>
        <mxCell id="5Tn547NZbzkMeKfLdmhW-28" value="" style="edgeStyle=orthogonalEdgeStyle;rounded=0;orthogonalLoop=1;jettySize=auto;html=1;dashed=1;endArrow=open;endFill=0;entryX=0.5;entryY=1;entryDx=0;entryDy=0;exitX=0;exitY=0.5;exitDx=0;exitDy=0;" edge="1" source="5Tn547NZbzkMeKfLdmhW-30" parent="1" target="5Tn547NZbzkMeKfLdmhW-2">
          <mxGeometry relative="1" as="geometry">
            <mxPoint x="491" y="540" as="sourcePoint" />
            <mxPoint x="360" y="490" as="targetPoint" />
            <Array as="points">
              <mxPoint x="501" y="520" />
              <mxPoint x="320" y="520" />
            </Array>
          </mxGeometry>
        </mxCell>
        <mxCell id="5Tn547NZbzkMeKfLdmhW-29" value="&amp;lt;&amp;lt;extend&amp;gt;&amp;gt;" style="edgeLabel;html=1;align=center;verticalAlign=middle;resizable=0;points=[];" vertex="1" connectable="0" parent="5Tn547NZbzkMeKfLdmhW-28">
          <mxGeometry relative="1" as="geometry">
            <mxPoint as="offset" />
          </mxGeometry>
        </mxCell>
        <mxCell id="5Tn547NZbzkMeKfLdmhW-30" value="dodawanie uczestników" style="ellipse;whiteSpace=wrap;html=1;" vertex="1" parent="1">
          <mxGeometry x="510" y="510" width="140" height="70" as="geometry" />
        </mxCell>
      </root>
    </mxGraphModel>
  </diagram>
  <diagram id="JU3f2Gn8DMt14Z-GgrVj" name="Strona-3">
    <mxGraphModel dx="1114" dy="593" grid="1" gridSize="10" guides="1" tooltips="1" connect="1" arrows="1" fold="1" page="1" pageScale="1" pageWidth="827" pageHeight="1169" math="0" shadow="0">
      <root>
        <mxCell id="0" />
        <mxCell id="1" parent="0" />
        <mxCell id="jNsLNOCh984aqxK3Sjc5-7" value="" style="ellipse;html=1;shape=startState;fillColor=#000000;strokeColor=#ff0000;" vertex="1" parent="1">
          <mxGeometry x="250" y="60" width="30" height="30" as="geometry" />
        </mxCell>
        <mxCell id="jNsLNOCh984aqxK3Sjc5-8" value="" style="edgeStyle=orthogonalEdgeStyle;html=1;verticalAlign=bottom;endArrow=open;endSize=8;strokeColor=#ff0000;rounded=0;" edge="1" source="jNsLNOCh984aqxK3Sjc5-7" parent="1">
          <mxGeometry relative="1" as="geometry">
            <mxPoint x="265" y="150" as="targetPoint" />
          </mxGeometry>
        </mxCell>
        <mxCell id="jNsLNOCh984aqxK3Sjc5-12" style="edgeStyle=orthogonalEdgeStyle;rounded=0;orthogonalLoop=1;jettySize=auto;html=1;" edge="1" parent="1" source="jNsLNOCh984aqxK3Sjc5-11">
          <mxGeometry relative="1" as="geometry">
            <mxPoint x="265" y="280" as="targetPoint" />
          </mxGeometry>
        </mxCell>
        <mxCell id="jNsLNOCh984aqxK3Sjc5-11" value="Odpowiedz na pytanie" style="rounded=1;whiteSpace=wrap;html=1;" vertex="1" parent="1">
          <mxGeometry x="205" y="150" width="120" height="60" as="geometry" />
        </mxCell>
        <mxCell id="jNsLNOCh984aqxK3Sjc5-13" value="" style="rhombus;whiteSpace=wrap;html=1;" vertex="1" parent="1">
          <mxGeometry x="225" y="260" width="80" height="80" as="geometry" />
        </mxCell>
        <mxCell id="jNsLNOCh984aqxK3Sjc5-24" value="Odpowiedź prawidłowa" style="text;html=1;align=center;verticalAlign=middle;whiteSpace=wrap;rounded=0;" vertex="1" parent="1">
          <mxGeometry x="290" y="320" width="60" height="30" as="geometry" />
        </mxCell>
      </root>
    </mxGraphModel>
  </diagram>
</mxfile>
